<svg width="754" height="620" viewBox="0 0 754 620" fill="none" xmlns="http://www.w3.org/2000/svg">
<path d="M49.3532 23.948C37.6103 30.4066 27.8247 45.2319 24.3996 51.8373C9.7211 102.478 6.78535 341.739 3.11571 367.426C-0.553927 393.114 3.84964 499.533 6.78535 522.285C9.72107 545.037 19.2621 551.642 44.2157 570.724C69.1692 589.807 287.88 617.696 398.703 619.164C509.526 620.632 682.733 583.201 711.356 570.724C739.467 558.471 744.926 538.432 751.369 514.776L751.722 513.478C757.007 494.102 744.628 244.615 737.778 122.294C736.31 102.234 732.347 59.1766 728.237 47.4337C723.099 32.7552 722.365 33.4891 703.283 26.1498C684.201 18.8105 541.819 3.39805 367.144 1.19626C192.469 -1.00552 64.0317 15.8748 49.3532 23.948Z" fill="#232531" stroke="#424141" stroke-width="1.46786"/>
</svg>
